<svg xmlns="http://www.w3.org/2000/svg" width="20" height="20" fill="none" viewBox="0 0 24 24" class="h-5 w-5 shrink-0"><path fill="currentColor" fill-rule="evenodd" d="M10.556 4a1 1 0 0 0-.97.751l-.292 1.14h5.421l-.293-1.14A1 1 0 0 0 13.453 4zm6.224 1.892-.421-1.639A3 3 0 0 0 13.453 2h-2.897A3 3 0 0 0 7.65 4.253l-.421 1.639H4a1 1 0 1 0 0 2h.1l1.215 11.425A3 3 0 0 0 8.3 22H15.7a3 3 0 0 0 2.984-2.683l1.214-11.425H20a1 1 0 1 0 0-2zm1.108 2H6.112l1.192 11.214A1 1 0 0 0 8.3 20H15.7a1 1 0 0 0 .995-.894zM10 10a1 1 0 0 1 1 1v5a1 1 0 1 1-2 0v-5a1 1 0 0 1 1-1m4 0a1 1 0 0 1 1 1v5a1 1 0 1 1-2 0v-5a1 1 0 0 1 1-1" clip-rule="evenodd"></path></svg>
