<svg t="1717405360726" class="icon" viewBox="0 0 1024 1024" version="1.1" xmlns="http://www.w3.org/2000/svg" p-id="4583" width="32" height="32"><path d="M1001.521951 564.44878c-4.995122-52.44878-27.473171-102.4-62.439024-142.360975 9.990244-32.468293 14.985366-69.931707 12.487805-104.897561s-14.985366-69.931707-32.468293-99.902439C889.131707 169.834146 849.170732 134.868293 799.219512 112.390244c-49.95122-22.478049-102.4-27.473171-154.84878-14.985366-22.478049-27.473171-52.44878-47.453659-84.917073-62.439024-32.468293-14.985366-67.434146-22.478049-102.4-22.478049-52.44878 0-104.897561 17.482927-147.356098 47.453658-42.458537 32.468293-74.926829 74.926829-92.409756 127.37561-34.965854 7.492683-67.434146 19.980488-97.404878 42.458537-27.473171 19.980488-52.44878 47.453659-69.931707 77.42439-27.473171 44.956098-37.463415 99.902439-32.468293 152.35122 4.995122 52.44878 27.473171 102.4 62.439024 142.360975-9.990244 32.468293-14.985366 69.931707-12.487805 104.897561s14.985366 69.931707 32.468293 99.902439c27.473171 47.453659 67.434146 82.419512 114.887805 104.897561 49.95122 22.478049 102.4 27.473171 154.84878 14.985366 22.478049 27.473171 52.44878 47.453659 84.917074 62.439024 32.468293 14.985366 67.434146 22.478049 102.4 22.478049 52.44878 0 104.897561-17.482927 147.356097-47.453658 42.458537-32.468293 74.926829-74.926829 92.409756-127.37561 34.965854-7.492683 67.434146-22.478049 97.404878-42.458537 27.473171-19.980488 52.44878-47.453659 69.931708-77.42439 29.970732-47.453659 42.458537-99.902439 37.463414-152.35122zM704.312195 157.346341c34.965854 2.497561 69.931707 12.487805 99.902439 32.468293 29.970732 19.980488 52.44878 47.453659 64.936586 82.419512 12.487805 32.468293 17.482927 69.931707 12.487804 104.897561-2.497561 0-4.995122-2.497561-4.995122-2.497561l-199.804878-114.887805c-4.995122-2.497561-9.990244-4.995122-17.482926-4.995121-4.995122 0-12.487805 2.497561-17.482927 4.995121L399.609756 399.609756v-99.902439-2.497561l202.302439-114.887805c32.468293-19.980488 67.434146-27.473171 102.4-24.97561z m-194.809756 229.77561l107.395122 62.439025v124.878048l-107.395122 62.439025-107.395122-62.439025v-124.878048l107.395122-62.439025z m-239.765854-122.380488c0-34.965854 9.990244-69.931707 29.970732-99.902439 19.980488-29.970732 47.453659-54.946341 77.42439-69.931707s67.434146-19.980488 102.4-14.985366c34.965854 4.995122 67.434146 19.980488 94.907317 42.458537-2.497561 0-4.995122 2.497561-4.995122 2.497561l-199.804878 114.887805c-4.995122 2.497561-9.990244 7.492683-12.487804 12.487805-2.497561 4.995122-4.995122 9.990244-4.995122 17.482926V549.463415l-79.921952-49.95122v-234.770732z m-179.82439 217.287805c-12.487805-47.453659-4.995122-99.902439 17.482927-142.360975 22.478049-37.463415 57.443902-67.434146 97.404878-82.419513v237.268293c0 4.995122 2.497561 12.487805 4.995122 17.482927 2.497561 4.995122 7.492683 9.990244 12.487805 12.487805l242.263414 139.863415-84.917073 47.453658h-2.497561-2.497561l-199.804878-114.887805c-42.458537-24.97561-72.429268-67.434146-84.917073-114.887805z m182.321951 379.629269C224.780488 849.170732 184.819512 816.702439 159.843902 774.243902c-22.478049-37.463415-29.970732-82.419512-22.478048-124.878048 2.497561 0 4.995122 2.497561 4.995122 2.497561l199.804878 114.887805c4.995122 2.497561 9.990244 4.995122 17.482926 4.995121 4.995122 0 12.487805-2.497561 17.482927-4.995121l242.263415-139.863415v99.902439l-202.302439 114.887805c-44.956098 24.97561-94.907317 32.468293-144.858537 19.980488zM749.268293 759.258537c0 49.95122-19.980488 97.404878-54.946342 132.370731-34.965854 34.965854-82.419512 54.946341-132.370731 54.946342-44.956098 0-87.414634-14.985366-119.882927-42.458537 2.497561 0 4.995122-2.497561 4.995122-2.497561l199.804878-114.887805c4.995122-2.497561 9.990244-7.492683 12.487805-12.487805 2.497561-4.995122 4.995122-9.990244 4.995122-17.482926V477.034146L749.268293 524.487805v234.770732z m187.317073-152.35122c-2.497561 34.965854-14.985366 69.931707-37.463415 97.404878s-49.95122 49.95122-84.917073 62.439025v-237.268293c0-4.995122-2.497561-12.487805-4.995122-17.482927-2.497561-4.995122-7.492683-9.990244-12.487805-12.487805l-242.263414-139.863415 84.917073-47.453658h4.995122l202.302439 114.887805c29.970732 17.482927 54.946341 44.956098 72.429268 74.926829 12.487805 32.468293 19.980488 67.434146 17.482927 104.897561z" p-id="4584"></path></svg>
