<svg t="1717291477121" class="icon" viewBox="0 0 1024 1024" version="1.1" xmlns="http://www.w3.org/2000/svg" p-id="5072" width="24" height="24"><path d="M234.666667 768c-23.466667 0-42.666667-19.2-42.666667-42.666667V334.933333c0-23.466667 19.2-42.666667 42.666667-42.666666s42.666667 19.2 42.666666 42.666666V725.333333c0 23.466667-19.2 42.666667-42.666666 42.666667z" p-id="5073"></path><path d="M512 1024c-177.066667 0-320-134.4-320-298.666667 0-23.466667 19.2-42.666667 42.666667-42.666666s42.666667 19.2 42.666666 42.666666c0 117.333333 104.533333 213.333333 234.666667 213.333334s234.666667-96 234.666667-213.333334c0-23.466667 19.2-42.666667 42.666666-42.666666s42.666667 19.2 42.666667 42.666666c0 164.266667-142.933333 298.666667-320 298.666667z" p-id="5074"></path><path d="M789.333333 791.466667c-23.466667 0-42.666667-19.2-42.666666-42.666667V213.333333c0-23.466667 19.2-42.666667 42.666666-42.666666s42.666667 19.2 42.666667 42.666666v537.6c0 23.466667-19.2 40.533333-42.666667 40.533334z" p-id="5075"></path><path d="M396.8 277.333333c-23.466667 0-42.666667-19.2-42.666667-42.666666 0-125.866667 110.933333-234.666667 238.933334-234.666667C725.333333 0 832 98.133333 832 217.6c0 23.466667-19.2 42.666667-42.666667 42.666667s-42.666667-19.2-42.666666-42.666667C746.666667 145.066667 676.266667 85.333333 593.066667 85.333333c-87.466667 0-153.6 78.933333-153.6 149.333334 0 23.466667-19.2 42.666667-42.666667 42.666666z" p-id="5076"></path><path d="M396.8 723.2c-23.466667 0-42.666667-19.2-42.666667-42.666667v-448c0-23.466667 19.2-42.666667 42.666667-42.666666s42.666667 19.2 42.666667 42.666666v448c0 23.466667-19.2 42.666667-42.666667 42.666667z" p-id="5077"></path><path d="M512 838.4c-87.466667 0-157.866667-70.4-157.866667-157.866667 0-23.466667 19.2-42.666667 42.666667-42.666666s42.666667 19.2 42.666667 42.666666c0 40.533333 32 72.533333 72.533333 72.533334s72.533333-32 72.533333-72.533334c0-23.466667 19.2-42.666667 42.666667-42.666666s42.666667 19.2 42.666667 42.666666c0 87.466667-70.4 157.866667-157.866667 157.866667z" p-id="5078"></path><path d="M627.2 723.2c-23.466667 0-42.666667-19.2-42.666667-42.666667V334.933333c0-23.466667 19.2-42.666667 42.666667-42.666666s42.666667 19.2 42.666667 42.666666v345.6c0 23.466667-19.2 42.666667-42.666667 42.666667z" p-id="5079"></path></svg>
